# xmcd CD database file
#
# Track frame offsets:
#	150
#	21085
#	39911
#	58090
#	75700
#	96347
#	115524
#	124987
#	140482
#	157937
#	176663
#
# Disc length: 2464 seconds
#
# Revision: 1
# Processed by: cddbd v1.5.1PL0 Copyright (c) Steve Scherf et al.
# Submitted via: CDex 1.51
#
DISCID=89099e0b
DTITLE=Soul Demise - In Vain
DYEAR=2003
DGENRE=Death Metal
TTITLE0=In Vain
TTITLE1=Naive
TTITLE2=Trapped in a Body
TTITLE3=Inside My Emptiness
TTITLE4=Amnesia
TTITLE5=Cancer
TTITLE6=Darkness Within
TTITLE7=Eventually We Will Die
TTITLE8=Towards the Gate
TTITLE9=Downwards the Deliverance
TTITLE10=Passing Away
EXTD=YEAR: 2003
EXTT0=
EXTT1=
EXTT2=
EXTT3=
EXTT4=
EXTT5=
EXTT6=
EXTT7=
EXTT8=
EXTT9=
EXTT10=
PLAYORDER=
